<mxfile host="app.diagrams.net" modified="2023-05-30T10:47:23.027Z" agent="Mozilla/5.0 (Windows NT 10.0; Win64; x64) AppleWebKit/537.36 (KHTML, like Gecko) Chrome/113.0.0.0 Safari/537.36" etag="niCGMYM4HRI_foC28ePy" version="21.3.5" type="github" pages="5">
  <diagram name="Page-1" id="b-sVENCB8kg7lLsIIxQy">
    <mxGraphModel dx="980" dy="722" grid="1" gridSize="10" guides="1" tooltips="1" connect="1" arrows="1" fold="1" page="1" pageScale="1" pageWidth="1169" pageHeight="827" math="0" shadow="0">
      <root>
        <mxCell id="0" />
        <mxCell id="1" parent="0" />
        <mxCell id="nMsTujGeE_rgpoT-YoZp-3" value="" style="edgeStyle=orthogonalEdgeStyle;rounded=0;orthogonalLoop=1;jettySize=auto;html=1;" edge="1" parent="1" source="nMsTujGeE_rgpoT-YoZp-1" target="nMsTujGeE_rgpoT-YoZp-2">
          <mxGeometry relative="1" as="geometry" />
        </mxCell>
        <mxCell id="nMsTujGeE_rgpoT-YoZp-1" value="Start" style="ellipse;whiteSpace=wrap;html=1;strokeColor=#FF1414;" vertex="1" parent="1">
          <mxGeometry x="130" y="60" width="120" height="80" as="geometry" />
        </mxCell>
        <mxCell id="nMsTujGeE_rgpoT-YoZp-5" value="" style="edgeStyle=orthogonalEdgeStyle;rounded=0;orthogonalLoop=1;jettySize=auto;html=1;" edge="1" parent="1" source="nMsTujGeE_rgpoT-YoZp-2" target="nMsTujGeE_rgpoT-YoZp-4">
          <mxGeometry relative="1" as="geometry" />
        </mxCell>
        <mxCell id="nMsTujGeE_rgpoT-YoZp-2" value="number" style="shape=parallelogram;perimeter=parallelogramPerimeter;whiteSpace=wrap;html=1;fixedSize=1;" vertex="1" parent="1">
          <mxGeometry x="130" y="210" width="120" height="60" as="geometry" />
        </mxCell>
        <mxCell id="nMsTujGeE_rgpoT-YoZp-8" value="no" style="edgeStyle=orthogonalEdgeStyle;rounded=0;orthogonalLoop=1;jettySize=auto;html=1;" edge="1" parent="1" source="nMsTujGeE_rgpoT-YoZp-4" target="nMsTujGeE_rgpoT-YoZp-7">
          <mxGeometry relative="1" as="geometry" />
        </mxCell>
        <mxCell id="nMsTujGeE_rgpoT-YoZp-9" value="yes" style="edgeStyle=orthogonalEdgeStyle;rounded=0;orthogonalLoop=1;jettySize=auto;html=1;" edge="1" parent="1" source="nMsTujGeE_rgpoT-YoZp-4" target="nMsTujGeE_rgpoT-YoZp-6">
          <mxGeometry relative="1" as="geometry" />
        </mxCell>
        <mxCell id="nMsTujGeE_rgpoT-YoZp-4" value="number % 2 == 0?" style="rhombus;whiteSpace=wrap;html=1;" vertex="1" parent="1">
          <mxGeometry x="320" y="200" width="80" height="80" as="geometry" />
        </mxCell>
        <mxCell id="nMsTujGeE_rgpoT-YoZp-12" style="edgeStyle=orthogonalEdgeStyle;rounded=0;orthogonalLoop=1;jettySize=auto;html=1;" edge="1" parent="1" source="nMsTujGeE_rgpoT-YoZp-6" target="nMsTujGeE_rgpoT-YoZp-10">
          <mxGeometry relative="1" as="geometry" />
        </mxCell>
        <mxCell id="nMsTujGeE_rgpoT-YoZp-6" value="True" style="shape=document;whiteSpace=wrap;html=1;boundedLbl=1;" vertex="1" parent="1">
          <mxGeometry x="465" y="200" width="120" height="80" as="geometry" />
        </mxCell>
        <mxCell id="nMsTujGeE_rgpoT-YoZp-11" style="edgeStyle=orthogonalEdgeStyle;rounded=0;orthogonalLoop=1;jettySize=auto;html=1;entryX=0;entryY=0.5;entryDx=0;entryDy=0;" edge="1" parent="1" source="nMsTujGeE_rgpoT-YoZp-7" target="nMsTujGeE_rgpoT-YoZp-10">
          <mxGeometry relative="1" as="geometry" />
        </mxCell>
        <mxCell id="nMsTujGeE_rgpoT-YoZp-7" value="False" style="shape=document;whiteSpace=wrap;html=1;boundedLbl=1;" vertex="1" parent="1">
          <mxGeometry x="300" y="360" width="120" height="80" as="geometry" />
        </mxCell>
        <mxCell id="nMsTujGeE_rgpoT-YoZp-10" value="Finish" style="ellipse;whiteSpace=wrap;html=1;fillColor=#dae8fc;strokeColor=#6c8ebf;" vertex="1" parent="1">
          <mxGeometry x="465" y="440" width="120" height="80" as="geometry" />
        </mxCell>
        <mxCell id="nMsTujGeE_rgpoT-YoZp-13" value="if" style="text;html=1;align=center;verticalAlign=middle;resizable=0;points=[];autosize=1;strokeColor=none;fillColor=none;" vertex="1" parent="1">
          <mxGeometry x="370" y="190" width="30" height="30" as="geometry" />
        </mxCell>
      </root>
    </mxGraphModel>
  </diagram>
  <diagram id="Cn3rR5LmYBUWm60EOdqu" name="Page-2">
    <mxGraphModel dx="2322" dy="849" grid="1" gridSize="10" guides="1" tooltips="1" connect="1" arrows="1" fold="1" page="1" pageScale="1" pageWidth="1169" pageHeight="827" math="0" shadow="0">
      <root>
        <mxCell id="0" />
        <mxCell id="1" parent="0" />
        <mxCell id="M-yddSdaqczWm70L8m4N-10" value="" style="edgeStyle=orthogonalEdgeStyle;rounded=0;orthogonalLoop=1;jettySize=auto;html=1;" edge="1" parent="1" source="M-yddSdaqczWm70L8m4N-1" target="M-yddSdaqczWm70L8m4N-2">
          <mxGeometry relative="1" as="geometry" />
        </mxCell>
        <mxCell id="M-yddSdaqczWm70L8m4N-1" value="Start" style="ellipse;whiteSpace=wrap;html=1;" vertex="1" parent="1">
          <mxGeometry x="200" y="70" width="120" height="80" as="geometry" />
        </mxCell>
        <mxCell id="M-yddSdaqczWm70L8m4N-9" value="" style="edgeStyle=orthogonalEdgeStyle;rounded=0;orthogonalLoop=1;jettySize=auto;html=1;" edge="1" parent="1" source="M-yddSdaqczWm70L8m4N-2" target="M-yddSdaqczWm70L8m4N-4">
          <mxGeometry relative="1" as="geometry" />
        </mxCell>
        <mxCell id="M-yddSdaqczWm70L8m4N-2" value="week_day" style="shape=parallelogram;perimeter=parallelogramPerimeter;whiteSpace=wrap;html=1;fixedSize=1;" vertex="1" parent="1">
          <mxGeometry x="200" y="230" width="120" height="60" as="geometry" />
        </mxCell>
        <mxCell id="M-yddSdaqczWm70L8m4N-7" value="no" style="edgeStyle=orthogonalEdgeStyle;rounded=0;orthogonalLoop=1;jettySize=auto;html=1;" edge="1" parent="1" source="M-yddSdaqczWm70L8m4N-4" target="M-yddSdaqczWm70L8m4N-6">
          <mxGeometry relative="1" as="geometry" />
        </mxCell>
        <mxCell id="M-yddSdaqczWm70L8m4N-8" value="yes" style="edgeStyle=orthogonalEdgeStyle;rounded=0;orthogonalLoop=1;jettySize=auto;html=1;" edge="1" parent="1" source="M-yddSdaqczWm70L8m4N-4" target="M-yddSdaqczWm70L8m4N-5">
          <mxGeometry relative="1" as="geometry" />
        </mxCell>
        <mxCell id="M-yddSdaqczWm70L8m4N-4" value="&lt;br&gt;&lt;span style=&quot;color: rgb(0, 0, 0); font-family: Helvetica; font-size: 12px; font-style: normal; font-variant-ligatures: normal; font-variant-caps: normal; font-weight: 400; letter-spacing: normal; orphans: 2; text-align: center; text-indent: 0px; text-transform: none; widows: 2; word-spacing: 0px; -webkit-text-stroke-width: 0px; background-color: rgb(251, 251, 251); text-decoration-thickness: initial; text-decoration-style: initial; text-decoration-color: initial; float: none; display: inline !important;&quot;&gt;5 &amp;lt; week_day &amp;lt;= 7&lt;/span&gt;&lt;br&gt;" style="rhombus;whiteSpace=wrap;html=1;" vertex="1" parent="1">
          <mxGeometry x="145" y="373.5" width="230" height="80" as="geometry" />
        </mxCell>
        <mxCell id="M-yddSdaqczWm70L8m4N-12" style="edgeStyle=orthogonalEdgeStyle;rounded=0;orthogonalLoop=1;jettySize=auto;html=1;entryX=1.025;entryY=0.388;entryDx=0;entryDy=0;entryPerimeter=0;" edge="1" parent="1" source="M-yddSdaqczWm70L8m4N-5" target="M-yddSdaqczWm70L8m4N-11">
          <mxGeometry relative="1" as="geometry">
            <Array as="points">
              <mxPoint x="530" y="601" />
            </Array>
          </mxGeometry>
        </mxCell>
        <mxCell id="M-yddSdaqczWm70L8m4N-5" value="True" style="shape=document;whiteSpace=wrap;html=1;boundedLbl=1;" vertex="1" parent="1">
          <mxGeometry x="465" y="374" width="120" height="80" as="geometry" />
        </mxCell>
        <mxCell id="M-yddSdaqczWm70L8m4N-13" style="edgeStyle=orthogonalEdgeStyle;rounded=0;orthogonalLoop=1;jettySize=auto;html=1;entryX=0;entryY=0.5;entryDx=0;entryDy=0;" edge="1" parent="1" source="M-yddSdaqczWm70L8m4N-6" target="M-yddSdaqczWm70L8m4N-11">
          <mxGeometry relative="1" as="geometry">
            <Array as="points">
              <mxPoint x="10" y="610" />
            </Array>
          </mxGeometry>
        </mxCell>
        <mxCell id="M-yddSdaqczWm70L8m4N-6" value="False" style="shape=document;whiteSpace=wrap;html=1;boundedLbl=1;" vertex="1" parent="1">
          <mxGeometry x="-50" y="374" width="120" height="80" as="geometry" />
        </mxCell>
        <mxCell id="M-yddSdaqczWm70L8m4N-11" value="False" style="ellipse;whiteSpace=wrap;html=1;fillColor=#dae8fc;strokeColor=#6c8ebf;" vertex="1" parent="1">
          <mxGeometry x="200" y="570" width="120" height="80" as="geometry" />
        </mxCell>
      </root>
    </mxGraphModel>
  </diagram>
  <diagram id="0HUEy7xp3Vhae6MwhbAw" name="Page-3">
    <mxGraphModel dx="676" dy="498" grid="1" gridSize="10" guides="0" tooltips="1" connect="1" arrows="1" fold="1" page="1" pageScale="1" pageWidth="1169" pageHeight="827" math="0" shadow="0">
      <root>
        <mxCell id="0" />
        <mxCell id="1" parent="0" />
        <mxCell id="jCKDqMoXtJur09jomzXj-3" value="" style="edgeStyle=orthogonalEdgeStyle;rounded=0;orthogonalLoop=1;jettySize=auto;html=1;" edge="1" parent="1" source="jCKDqMoXtJur09jomzXj-1" target="jCKDqMoXtJur09jomzXj-2">
          <mxGeometry relative="1" as="geometry" />
        </mxCell>
        <mxCell id="jCKDqMoXtJur09jomzXj-1" value="Start" style="ellipse;whiteSpace=wrap;html=1;strokeColor=#FF1414;" vertex="1" parent="1">
          <mxGeometry x="160" y="50" width="120" height="80" as="geometry" />
        </mxCell>
        <mxCell id="jCKDqMoXtJur09jomzXj-7" value="" style="edgeStyle=orthogonalEdgeStyle;rounded=0;orthogonalLoop=1;jettySize=auto;html=1;" edge="1" parent="1" target="jCKDqMoXtJur09jomzXj-6">
          <mxGeometry relative="1" as="geometry">
            <mxPoint x="220" y="280" as="sourcePoint" />
          </mxGeometry>
        </mxCell>
        <mxCell id="jCKDqMoXtJur09jomzXj-18" value="" style="edgeStyle=orthogonalEdgeStyle;rounded=0;orthogonalLoop=1;jettySize=auto;html=1;" edge="1" parent="1" source="jCKDqMoXtJur09jomzXj-2" target="jCKDqMoXtJur09jomzXj-17">
          <mxGeometry relative="1" as="geometry" />
        </mxCell>
        <mxCell id="jCKDqMoXtJur09jomzXj-2" value="a, b" style="shape=parallelogram;perimeter=parallelogramPerimeter;whiteSpace=wrap;html=1;fixedSize=1;" vertex="1" parent="1">
          <mxGeometry x="160" y="160" width="120" height="50" as="geometry" />
        </mxCell>
        <mxCell id="jCKDqMoXtJur09jomzXj-9" value="yes" style="edgeStyle=orthogonalEdgeStyle;rounded=0;orthogonalLoop=1;jettySize=auto;html=1;" edge="1" parent="1" source="jCKDqMoXtJur09jomzXj-6" target="jCKDqMoXtJur09jomzXj-8">
          <mxGeometry relative="1" as="geometry" />
        </mxCell>
        <mxCell id="jCKDqMoXtJur09jomzXj-14" value="no" style="edgeStyle=orthogonalEdgeStyle;rounded=0;orthogonalLoop=1;jettySize=auto;html=1;" edge="1" parent="1" source="jCKDqMoXtJur09jomzXj-6">
          <mxGeometry relative="1" as="geometry">
            <mxPoint x="120" y="390" as="targetPoint" />
          </mxGeometry>
        </mxCell>
        <mxCell id="jCKDqMoXtJur09jomzXj-6" value="b &amp;gt; 1?" style="rhombus;whiteSpace=wrap;html=1;" vertex="1" parent="1">
          <mxGeometry x="180" y="350" width="80" height="80" as="geometry" />
        </mxCell>
        <mxCell id="jCKDqMoXtJur09jomzXj-12" value="" style="edgeStyle=orthogonalEdgeStyle;rounded=0;orthogonalLoop=1;jettySize=auto;html=1;" edge="1" parent="1" source="jCKDqMoXtJur09jomzXj-8" target="jCKDqMoXtJur09jomzXj-11">
          <mxGeometry relative="1" as="geometry" />
        </mxCell>
        <mxCell id="jCKDqMoXtJur09jomzXj-8" value="power_of = power_of *a" style="rounded=0;whiteSpace=wrap;html=1;" vertex="1" parent="1">
          <mxGeometry x="350" y="360" width="160" height="60" as="geometry" />
        </mxCell>
        <mxCell id="jCKDqMoXtJur09jomzXj-16" value="" style="edgeStyle=orthogonalEdgeStyle;rounded=0;orthogonalLoop=1;jettySize=auto;html=1;" edge="1" parent="1">
          <mxGeometry relative="1" as="geometry">
            <mxPoint x="60" y="430" as="sourcePoint" />
            <mxPoint x="60" y="510" as="targetPoint" />
          </mxGeometry>
        </mxCell>
        <mxCell id="jCKDqMoXtJur09jomzXj-10" value="power_of" style="shape=document;whiteSpace=wrap;html=1;boundedLbl=1;" vertex="1" parent="1">
          <mxGeometry y="360" width="120" height="80" as="geometry" />
        </mxCell>
        <mxCell id="jCKDqMoXtJur09jomzXj-11" value="b = b - 1" style="rounded=0;whiteSpace=wrap;html=1;" vertex="1" parent="1">
          <mxGeometry x="530" y="360" width="70" height="60" as="geometry" />
        </mxCell>
        <mxCell id="jCKDqMoXtJur09jomzXj-13" value="" style="endArrow=classic;html=1;rounded=0;exitX=0.5;exitY=1;exitDx=0;exitDy=0;entryX=0.5;entryY=1;entryDx=0;entryDy=0;" edge="1" parent="1" source="jCKDqMoXtJur09jomzXj-11" target="jCKDqMoXtJur09jomzXj-6">
          <mxGeometry width="50" height="50" relative="1" as="geometry">
            <mxPoint x="250" y="480" as="sourcePoint" />
            <mxPoint x="300" y="430" as="targetPoint" />
            <Array as="points">
              <mxPoint x="565" y="640" />
              <mxPoint x="220" y="640" />
            </Array>
          </mxGeometry>
        </mxCell>
        <mxCell id="jCKDqMoXtJur09jomzXj-15" value="Finish" style="ellipse;whiteSpace=wrap;html=1;fillColor=#dae8fc;strokeColor=#6c8ebf;" vertex="1" parent="1">
          <mxGeometry y="520" width="120" height="80" as="geometry" />
        </mxCell>
        <mxCell id="jCKDqMoXtJur09jomzXj-17" value="power_of = a" style="rounded=0;whiteSpace=wrap;html=1;" vertex="1" parent="1">
          <mxGeometry x="160" y="260" width="120" height="60" as="geometry" />
        </mxCell>
        <mxCell id="jCKDqMoXtJur09jomzXj-19" value="while" style="text;html=1;align=center;verticalAlign=middle;resizable=0;points=[];autosize=1;strokeColor=none;fillColor=none;" vertex="1" parent="1">
          <mxGeometry x="240" y="350" width="50" height="30" as="geometry" />
        </mxCell>
        <mxCell id="jCKDqMoXtJur09jomzXj-20" value="2" style="text;html=1;align=center;verticalAlign=middle;resizable=0;points=[];autosize=1;strokeColor=none;fillColor=none;" vertex="1" parent="1">
          <mxGeometry x="170" y="208" width="30" height="30" as="geometry" />
        </mxCell>
        <mxCell id="jCKDqMoXtJur09jomzXj-21" value="6" style="text;html=1;align=center;verticalAlign=middle;resizable=0;points=[];autosize=1;strokeColor=none;fillColor=none;" vertex="1" parent="1">
          <mxGeometry x="235" y="208" width="30" height="30" as="geometry" />
        </mxCell>
        <mxCell id="jCKDqMoXtJur09jomzXj-22" value="2" style="text;html=1;align=center;verticalAlign=middle;resizable=0;points=[];autosize=1;strokeColor=none;fillColor=none;" vertex="1" parent="1">
          <mxGeometry x="275" y="268" width="30" height="30" as="geometry" />
        </mxCell>
        <mxCell id="jCKDqMoXtJur09jomzXj-23" value="4" style="text;html=1;align=center;verticalAlign=middle;resizable=0;points=[];autosize=1;strokeColor=none;fillColor=none;" vertex="1" parent="1">
          <mxGeometry x="375" y="418" width="30" height="30" as="geometry" />
        </mxCell>
        <mxCell id="jCKDqMoXtJur09jomzXj-24" value="1" style="text;html=1;align=center;verticalAlign=middle;resizable=0;points=[];autosize=1;strokeColor=none;fillColor=none;" vertex="1" parent="1">
          <mxGeometry x="595" y="388" width="30" height="30" as="geometry" />
        </mxCell>
      </root>
    </mxGraphModel>
  </diagram>
  <diagram id="BB9RRxt6KnVPOwtDui1_" name="Page-4">
    <mxGraphModel dx="817" dy="602" grid="1" gridSize="10" guides="1" tooltips="1" connect="1" arrows="1" fold="1" page="1" pageScale="1" pageWidth="1169" pageHeight="827" math="0" shadow="0">
      <root>
        <mxCell id="0" />
        <mxCell id="1" parent="0" />
        <mxCell id="UNcf2tpZki5BRjOyb_MS-4" value="" style="edgeStyle=orthogonalEdgeStyle;rounded=0;orthogonalLoop=1;jettySize=auto;html=1;" edge="1" parent="1" source="UNcf2tpZki5BRjOyb_MS-1" target="UNcf2tpZki5BRjOyb_MS-3">
          <mxGeometry relative="1" as="geometry" />
        </mxCell>
        <mxCell id="UNcf2tpZki5BRjOyb_MS-1" value="Start" style="ellipse;whiteSpace=wrap;html=1;strokeColor=#FF1414;" vertex="1" parent="1">
          <mxGeometry x="190" y="80" width="120" height="80" as="geometry" />
        </mxCell>
        <mxCell id="UNcf2tpZki5BRjOyb_MS-8" value="yes" style="edgeStyle=orthogonalEdgeStyle;rounded=0;orthogonalLoop=1;jettySize=auto;html=1;" edge="1" parent="1" source="UNcf2tpZki5BRjOyb_MS-2">
          <mxGeometry relative="1" as="geometry">
            <mxPoint x="580" y="350" as="targetPoint" />
          </mxGeometry>
        </mxCell>
        <mxCell id="UNcf2tpZki5BRjOyb_MS-15" value="no" style="edgeStyle=orthogonalEdgeStyle;rounded=0;orthogonalLoop=1;jettySize=auto;html=1;" edge="1" parent="1" source="UNcf2tpZki5BRjOyb_MS-2" target="UNcf2tpZki5BRjOyb_MS-14">
          <mxGeometry relative="1" as="geometry" />
        </mxCell>
        <mxCell id="UNcf2tpZki5BRjOyb_MS-2" value="min &amp;lt;= n?" style="rhombus;whiteSpace=wrap;html=1;" vertex="1" parent="1">
          <mxGeometry x="440" y="310" width="80" height="80" as="geometry" />
        </mxCell>
        <mxCell id="UNcf2tpZki5BRjOyb_MS-6" value="" style="edgeStyle=orthogonalEdgeStyle;rounded=0;orthogonalLoop=1;jettySize=auto;html=1;" edge="1" parent="1" source="UNcf2tpZki5BRjOyb_MS-3" target="UNcf2tpZki5BRjOyb_MS-5">
          <mxGeometry relative="1" as="geometry" />
        </mxCell>
        <mxCell id="UNcf2tpZki5BRjOyb_MS-3" value="n" style="shape=parallelogram;perimeter=parallelogramPerimeter;whiteSpace=wrap;html=1;fixedSize=1;" vertex="1" parent="1">
          <mxGeometry x="190" y="210" width="120" height="60" as="geometry" />
        </mxCell>
        <mxCell id="UNcf2tpZki5BRjOyb_MS-11" style="edgeStyle=orthogonalEdgeStyle;rounded=0;orthogonalLoop=1;jettySize=auto;html=1;" edge="1" parent="1" source="UNcf2tpZki5BRjOyb_MS-5" target="UNcf2tpZki5BRjOyb_MS-2">
          <mxGeometry relative="1" as="geometry" />
        </mxCell>
        <mxCell id="UNcf2tpZki5BRjOyb_MS-5" value="min = - n" style="rounded=0;whiteSpace=wrap;html=1;" vertex="1" parent="1">
          <mxGeometry x="190" y="320" width="120" height="60" as="geometry" />
        </mxCell>
        <mxCell id="UNcf2tpZki5BRjOyb_MS-12" value="" style="edgeStyle=orthogonalEdgeStyle;rounded=0;orthogonalLoop=1;jettySize=auto;html=1;" edge="1" parent="1" source="UNcf2tpZki5BRjOyb_MS-9" target="UNcf2tpZki5BRjOyb_MS-10">
          <mxGeometry relative="1" as="geometry" />
        </mxCell>
        <mxCell id="UNcf2tpZki5BRjOyb_MS-9" value="min" style="shape=document;whiteSpace=wrap;html=1;boundedLbl=1;" vertex="1" parent="1">
          <mxGeometry x="585" y="310" width="120" height="80" as="geometry" />
        </mxCell>
        <mxCell id="UNcf2tpZki5BRjOyb_MS-13" style="edgeStyle=orthogonalEdgeStyle;rounded=0;orthogonalLoop=1;jettySize=auto;html=1;entryX=0.5;entryY=1;entryDx=0;entryDy=0;" edge="1" parent="1" source="UNcf2tpZki5BRjOyb_MS-10" target="UNcf2tpZki5BRjOyb_MS-2">
          <mxGeometry relative="1" as="geometry">
            <mxPoint x="640" y="550" as="targetPoint" />
            <Array as="points">
              <mxPoint x="860" y="450" />
              <mxPoint x="480" y="450" />
            </Array>
          </mxGeometry>
        </mxCell>
        <mxCell id="UNcf2tpZki5BRjOyb_MS-10" value="min += 1" style="rounded=0;whiteSpace=wrap;html=1;" vertex="1" parent="1">
          <mxGeometry x="800" y="320" width="120" height="60" as="geometry" />
        </mxCell>
        <mxCell id="UNcf2tpZki5BRjOyb_MS-14" value="finish" style="ellipse;whiteSpace=wrap;html=1;fillColor=#dae8fc;strokeColor=#6c8ebf;" vertex="1" parent="1">
          <mxGeometry x="420" y="200" width="120" height="80" as="geometry" />
        </mxCell>
        <mxCell id="UNcf2tpZki5BRjOyb_MS-16" value="while" style="text;html=1;align=center;verticalAlign=middle;resizable=0;points=[];autosize=1;strokeColor=none;fillColor=none;" vertex="1" parent="1">
          <mxGeometry x="490" y="310" width="50" height="30" as="geometry" />
        </mxCell>
      </root>
    </mxGraphModel>
  </diagram>
  <diagram id="n656f_A7XrSXQOtavH8n" name="Page-5">
    <mxGraphModel dx="980" dy="722" grid="1" gridSize="10" guides="1" tooltips="1" connect="1" arrows="1" fold="1" page="1" pageScale="1" pageWidth="1169" pageHeight="827" math="0" shadow="0">
      <root>
        <mxCell id="0" />
        <mxCell id="1" parent="0" />
        <mxCell id="Z9dZSYNYz5Y2hHhkD2y3-4" value="" style="edgeStyle=orthogonalEdgeStyle;rounded=0;orthogonalLoop=1;jettySize=auto;html=1;" edge="1" parent="1" source="Z9dZSYNYz5Y2hHhkD2y3-1" target="Z9dZSYNYz5Y2hHhkD2y3-2">
          <mxGeometry relative="1" as="geometry" />
        </mxCell>
        <mxCell id="Z9dZSYNYz5Y2hHhkD2y3-1" value="start" style="ellipse;whiteSpace=wrap;html=1;strokeColor=#FF1414;" vertex="1" parent="1">
          <mxGeometry x="570" y="80" width="120" height="80" as="geometry" />
        </mxCell>
        <mxCell id="Z9dZSYNYz5Y2hHhkD2y3-6" value="" style="edgeStyle=orthogonalEdgeStyle;rounded=0;orthogonalLoop=1;jettySize=auto;html=1;" edge="1" parent="1" source="Z9dZSYNYz5Y2hHhkD2y3-2">
          <mxGeometry relative="1" as="geometry">
            <mxPoint x="630" y="354" as="targetPoint" />
          </mxGeometry>
        </mxCell>
        <mxCell id="Z9dZSYNYz5Y2hHhkD2y3-2" value="n: int" style="shape=parallelogram;perimeter=parallelogramPerimeter;whiteSpace=wrap;html=1;fixedSize=1;" vertex="1" parent="1">
          <mxGeometry x="570" y="220" width="120" height="60" as="geometry" />
        </mxCell>
        <mxCell id="Z9dZSYNYz5Y2hHhkD2y3-3" value="&lt;span style=&quot;font-size: 50px;&quot;&gt;Найти сумму чисел от 1 до n&lt;/span&gt;" style="rounded=0;whiteSpace=wrap;html=1;" vertex="1" parent="1">
          <mxGeometry x="30" y="30" width="400" height="200" as="geometry" />
        </mxCell>
        <mxCell id="Z9dZSYNYz5Y2hHhkD2y3-26" value="" style="edgeStyle=orthogonalEdgeStyle;rounded=0;orthogonalLoop=1;jettySize=auto;html=1;" edge="1" parent="1" source="Z9dZSYNYz5Y2hHhkD2y3-9" target="Z9dZSYNYz5Y2hHhkD2y3-25">
          <mxGeometry relative="1" as="geometry" />
        </mxCell>
        <mxCell id="Z9dZSYNYz5Y2hHhkD2y3-9" value="&#xa;&lt;span style=&quot;color: rgb(0, 0, 0); font-family: Helvetica; font-size: 12px; font-style: normal; font-variant-ligatures: normal; font-variant-caps: normal; font-weight: 400; letter-spacing: normal; orphans: 2; text-align: center; text-indent: 0px; text-transform: none; widows: 2; word-spacing: 0px; -webkit-text-stroke-width: 0px; background-color: rgb(251, 251, 251); text-decoration-thickness: initial; text-decoration-style: initial; text-decoration-color: initial; float: none; display: inline !important;&quot;&gt;sum = 0&lt;/span&gt;&lt;br style=&quot;border-color: var(--border-color); color: rgb(0, 0, 0); font-family: Helvetica; font-size: 12px; font-style: normal; font-variant-ligatures: normal; font-variant-caps: normal; font-weight: 400; letter-spacing: normal; orphans: 2; text-align: center; text-indent: 0px; text-transform: none; widows: 2; word-spacing: 0px; -webkit-text-stroke-width: 0px; background-color: rgb(251, 251, 251); text-decoration-thickness: initial; text-decoration-style: initial; text-decoration-color: initial;&quot;&gt;&lt;span style=&quot;color: rgb(0, 0, 0); font-family: Helvetica; font-size: 12px; font-style: normal; font-variant-ligatures: normal; font-variant-caps: normal; font-weight: 400; letter-spacing: normal; orphans: 2; text-align: center; text-indent: 0px; text-transform: none; widows: 2; word-spacing: 0px; -webkit-text-stroke-width: 0px; background-color: rgb(251, 251, 251); text-decoration-thickness: initial; text-decoration-style: initial; text-decoration-color: initial; float: none; display: inline !important;&quot;&gt;count = 1&lt;/span&gt;&#xa;&#xa;" style="rounded=0;whiteSpace=wrap;html=1;" vertex="1" parent="1">
          <mxGeometry x="570" y="354" width="120" height="60" as="geometry" />
        </mxCell>
        <mxCell id="Z9dZSYNYz5Y2hHhkD2y3-17" value="" style="edgeStyle=orthogonalEdgeStyle;rounded=0;orthogonalLoop=1;jettySize=auto;html=1;entryX=0;entryY=0.5;entryDx=0;entryDy=0;" edge="1" parent="1" source="Z9dZSYNYz5Y2hHhkD2y3-12" target="Z9dZSYNYz5Y2hHhkD2y3-25">
          <mxGeometry relative="1" as="geometry">
            <Array as="points">
              <mxPoint x="550" y="610" />
              <mxPoint x="550" y="500" />
            </Array>
          </mxGeometry>
        </mxCell>
        <mxCell id="Z9dZSYNYz5Y2hHhkD2y3-12" value="sum = sum + count" style="whiteSpace=wrap;html=1;" vertex="1" parent="1">
          <mxGeometry x="570" y="580" width="120" height="60" as="geometry" />
        </mxCell>
        <mxCell id="Z9dZSYNYz5Y2hHhkD2y3-24" value="" style="edgeStyle=orthogonalEdgeStyle;rounded=0;orthogonalLoop=1;jettySize=auto;html=1;" edge="1" parent="1" source="Z9dZSYNYz5Y2hHhkD2y3-20" target="Z9dZSYNYz5Y2hHhkD2y3-21">
          <mxGeometry relative="1" as="geometry" />
        </mxCell>
        <mxCell id="Z9dZSYNYz5Y2hHhkD2y3-20" value="sum" style="shape=document;whiteSpace=wrap;html=1;boundedLbl=1;" vertex="1" parent="1">
          <mxGeometry x="770" y="460" width="120" height="80" as="geometry" />
        </mxCell>
        <mxCell id="Z9dZSYNYz5Y2hHhkD2y3-21" value="finish" style="ellipse;whiteSpace=wrap;html=1;fillColor=#dae8fc;strokeColor=#6c8ebf;" vertex="1" parent="1">
          <mxGeometry x="770" y="334" width="120" height="80" as="geometry" />
        </mxCell>
        <mxCell id="Z9dZSYNYz5Y2hHhkD2y3-27" value="" style="edgeStyle=orthogonalEdgeStyle;rounded=0;orthogonalLoop=1;jettySize=auto;html=1;" edge="1" parent="1" source="Z9dZSYNYz5Y2hHhkD2y3-25" target="Z9dZSYNYz5Y2hHhkD2y3-12">
          <mxGeometry relative="1" as="geometry" />
        </mxCell>
        <mxCell id="Z9dZSYNYz5Y2hHhkD2y3-29" value="" style="edgeStyle=orthogonalEdgeStyle;rounded=0;orthogonalLoop=1;jettySize=auto;html=1;" edge="1" parent="1" source="Z9dZSYNYz5Y2hHhkD2y3-25" target="Z9dZSYNYz5Y2hHhkD2y3-20">
          <mxGeometry relative="1" as="geometry" />
        </mxCell>
        <mxCell id="Z9dZSYNYz5Y2hHhkD2y3-25" value="count, n, 1" style="shape=hexagon;perimeter=hexagonPerimeter2;whiteSpace=wrap;html=1;fixedSize=1;fillColor=#f8cecc;strokeColor=#b85450;" vertex="1" parent="1">
          <mxGeometry x="570" y="460" width="120" height="80" as="geometry" />
        </mxCell>
      </root>
    </mxGraphModel>
  </diagram>
</mxfile>
